<svg xmlns="http://www.w3.org/2000/svg" width="600" height="600" viewBox="0 0 600 600">
  <rect width="600" height="600" fill="#f0e6d3"/>
  <rect x="0" y="0" width="300" height="300" fill="#e74c3c" opacity="0.15"/>
  <rect x="0" y="300" width="300" height="300" fill="#2ecc71" opacity="0.15"/>
  <line x1="300" y1="0" x2="300" y2="600" stroke="#bbb" stroke-width="2"/>
  <line x1="0" y1="300" x2="600" y2="300" stroke="#bbb" stroke-width="2"/>
  <!-- Top left: disapproval -->
  <circle cx="150" cy="120" r="60" fill="#f5c542" stroke="#333" stroke-width="3"/>
  <line x1="125" y1="110" x2="145" y2="120" stroke="#333" stroke-width="4"/>
  <line x1="155" y1="120" x2="175" y2="110" stroke="#333" stroke-width="4"/>
  <path d="M120 150 Q150 135 180 150" fill="none" stroke="#333" stroke-width="4"/>
  <text x="150" y="220" text-anchor="middle" font-size="16" fill="#666">Nah</text>
  <!-- Bottom left: approval -->
  <circle cx="150" cy="420" r="60" fill="#f5c542" stroke="#333" stroke-width="3"/>
  <circle cx="135" cy="410" r="5" fill="#333"/>
  <circle cx="165" cy="410" r="5" fill="#333"/>
  <path d="M120 440 Q150 465 180 440" fill="none" stroke="#333" stroke-width="4"/>
  <text x="150" y="520" text-anchor="middle" font-size="16" fill="#666">Yeah!</text>
  <text x="450" y="40" text-anchor="middle" font-size="18" fill="#999" font-style="italic">Add top text</text>
  <text x="450" y="340" text-anchor="middle" font-size="18" fill="#999" font-style="italic">Add bottom text</text>
</svg>
